<?xml version="1.0" encoding="utf-8"?>
<!-- Generator: Adobe Illustrator 25.4.1, SVG Export Plug-In . SVG Version: 6.00 Build 0)  -->
<svg version="1.1" id="Layer_1" xmlns="http://www.w3.org/2000/svg" xmlns:xlink="http://www.w3.org/1999/xlink" x="0px" y="0px"
	 viewBox="0 0 243 306.6" style="enable-background:new 0 0 243 306.6;" xml:space="preserve">
<style type="text/css">
	.st0{fill:#F6B6B9;}
	.st1{fill:#D0CDE1;}
	.st2{fill:#302F42;}
	.st3{opacity:0.1;fill:#020203;enable-background:new    ;}
	.st4{fill:#3D3D3D;}
</style>
<g>
	<path class="st0" d="M23.1,132.3l7.3,22.6c0,0-6.6,21.2-3.5,44.8c3.1,23.6,1.4,24.3,1.4,24.3s-31.3-1.8-28.1,7.6s33.7,3.9,33.7,3.9
		s5.9-1.6,8.6-18.3s9.8-48.8,9.8-48.8l-6.6-30.3L23.1,132.3z"/>
	<path class="st1" d="M25.6,86.1c0,0-13.2,4.9-13.2,18.1s4.9,31.3,8,32.3s24,15.3,27.8,5.2S25.6,86.1,25.6,86.1z"/>
	<polygon class="st0" points="136.1,242.5 163.9,241.4 185.1,238.3 178.8,259.2 127.4,260.5 	"/>
	<path class="st2" d="M176,245.3c0,0-0.3-7.6-3.5-7.3c-3.1,0.3-1-2.8,1.7-3.5c2.8-0.7,10.8-4.2,10.8-4.2l31.6,2.1
		c0,0,20.5,18.1,12.2,27.8c-8.3,9.7-29.9,1-29.9,1l-23.3,0.3C175.7,261.6,168,249.1,176,245.3z"/>
	<polygon class="st0" points="188.6,218.5 198.6,265.8 219.5,261.6 207.7,202.5 195.2,195.9 	"/>
	<path class="st2" d="M68.7,212.6c0,0-58.4,26.4-33.7,53.2c0,0,0,12.5,26.1,10.1s76.5-7,78.9-5.6c2.4,1.4,10.1-27.5,3.5-28.8
		c-6.6-1.4-14.6-3.1-14.6-3.1s7-1,7-7c0,0,19.8-1.4,25.7-13.9c5.9-12.5,11.5-21.9,11.5-21.9l13.6,34.8c0,0,15.6-28.8,27.5-16
		c0,0-13.2-83.1-23.3-90.7c-10.1-7.6-17-10.1-26.4-3.1s-18.1,24.7-18.1,24.7L68.7,212.6z"/>
	<path class="st2" d="M208,251.5c-2.4,1.8-4.8,3.8-7,5.9c-2.8,2.8-6.6,1.4-7,0c-0.3-1.4-6.6,1-7.3,11.1c-0.7,10.1-4.9,19.1,6.3,22.2
		c11.1,3.1,10.8,12.2,10.8,12.2c8.8,4.2,18.9,4.8,28.1,1.7c15.6-5.2,10.1-10.8,10.1-10.8l-20.9-34.4
		C221.2,259.5,215.7,249.1,208,251.5z"/>
	<path class="st0" d="M150.3,79.1c0,0,33.4,11.5,36.8,13.9c3.5,2.4,19.1,13.9,11.5,19.8c-7.6,5.9-13.9,9.7-28.8,5.2
		s-31.6-18.4-31.6-18.4L150.3,79.1z"/>
	<path class="st1" d="M117,63.8c0,0,13.2-2.4,22.6,2.8c9.4,5.2,17.4,15.6,17.4,15.6s-8.7,18.4-14.9,21.2
		c-6.3,2.8-17.7-11.1-17.7-11.1L117,63.8z"/>
	<path class="st0" d="M56.1,53.8c0,0,0.3,13.6-1,14.9c-1.4,1.4,16.7,42.4,36.5,24.3s4.5-25.4,4.5-25.4s-7.3-13.6-7-14.9
		c0.3-1.4-32.3,0-32.3,0L56.1,53.8z"/>
	<path class="st3" d="M56.1,53.8c0,0,0.3,13.6-1,14.9c-1.4,1.4,16.7,42.4,36.5,24.3s4.5-25.4,4.5-25.4s-7.3-13.6-7-14.9
		c0.3-1.4-32.3,0-32.3,0L56.1,53.8z"/>
	<path class="st1" d="M61.7,79.8c0,0,13.2,9,18.8,7S93,75.7,93.7,75c0.7-0.7,36.1,70.5,36.1,70.5s-5.2,26.1-19.1,33.7
		S97,192.9,95.2,198.2c-1.7,5.2-24.2-16.5-24.2-16.5l-14.2-60.5V84.3L61.7,79.8z"/>
	<path class="st4" d="M56,63.7c0,0-4.3-0.9-8.9,3S21.4,84.7,22.4,86.1c1,1.4,10.4,21.2,12.5,29.2s5.2,9,5.2,9s7.3,5.2,6.3,9
		s-5.6,56,0.7,67.4c6.3,11.5,5.2,21.5,3.5,24.3c-1.7,2.8,16.7-8,16.7-8s27.5-22.2,29.5-28.8c1.3-4.5,2.3-9.2,2.8-13.9
		c0,0-17.7-70.2-23.3-74C70.7,96.5,56,63.7,56,63.7z"/>
	<path class="st4" d="M94.1,63.9c0,0,8.6-5.3,10.3-3.9c1.7,1.4,18.1,1.4,18.4,2.8c0.3,1.4,1,34.8,12.9,43.4s4.2,26.1,4.2,26.1
		l8.7,13.9c0,0-47.3,45.5-44.1,29.9c0.2-0.9,0-1,0-1S86,96.2,88.5,92S95.3,68.9,94.1,63.9z"/>
	<path class="st0" d="M167,95.8l-47.3,16.3c0,0-46.9,11.1-39.6,24s38.2-9,38.2-9l62.9-7.1C181.3,120,206.3,98.9,167,95.8z"/>
	<circle class="st0" cx="74.9" cy="40.9" r="25.7"/>
	<path class="st2" d="M54.4,15.4l-4.8-1.7c0,0,9.9-9.9,23.8-9.1l-3.9-3.9c0,0,9.5-3.5,18.2,5.6c4.5,4.8,9.8,10.4,13.1,16.7h5.1
		l-2.1,4.3l7.4,4.3l-7.6-0.8c0.7,3.7,0.5,7.5-0.7,11l-1.7,4.8c0,0-6.9-13.8-6.9-15.6v4.3c0,0-4.8-3.9-4.8-6.5l-2.6,3L85.6,27
		l-16,4.8l2.6-3.9l-9.9,1.3l3.9-4.8c0,0-11.2,5.6-11.7,10.4c-0.4,4.8-6.1,10.8-6.1,10.8l-2.6-4.3C45.8,41.3,41.9,21.8,54.4,15.4z"/>
</g>
</svg>
