<?xml version="1.0" encoding="utf-8"?>
<!-- Generator: Adobe Illustrator 25.4.1, SVG Export Plug-In . SVG Version: 6.00 Build 0)  -->
<svg version="1.1" id="Layer_1" xmlns="http://www.w3.org/2000/svg" xmlns:xlink="http://www.w3.org/1999/xlink" x="0px" y="0px"
	 viewBox="0 0 195.8 422.2" style="enable-background:new 0 0 195.8 422.2;" xml:space="preserve">
<style type="text/css">
	.st0{fill:#302F42;}
	.st1{fill:#F6B6B9;}
	.st2{fill:#D0CDE1;}
	.st3{opacity:0.1;fill:#020203;enable-background:new    ;}
</style>
<g>
	<rect x="106.5" y="27.9" class="st0" width="53.5" height="66.4"/>
	<path class="st1" d="M184.3,201.9c0,0,17.9,26,8.9,32.5c-8.9,6.5-17.9-28.4-17.9-28.4L184.3,201.9z"/>
	<path class="st2" d="M187.6,205.2l-13.8,5.7l-21.1-63.4l0.4-2.9l7.8-62.1c0,0,5.5-0.5,8.2,3.2c0.9,1.2,1.4,2.6,1.5,4.1
		c0.8,8.1-3.3,52.8-3.3,52.8s0.8,4.9,1.6,6.5s2.4,0.8,1.6,3.3c-0.8,2.4-2.4,2.4-1.6,3.3c0.6,0.7,1.2,1.6,1.6,2.4L187.6,205.2z"/>
	<path class="st1" d="M70.5,234.4L47,289.7c0,0-13.8,29.3-21.1,66.6l-8.9,25.2l15.4,3.3l4.1-6.5l3.3-15.4c0,0,26.8-40.6,28.4-61
		l44.7-61L70.5,234.4z"/>
	<path class="st1" d="M132.3,240.1v60.1c0,0-4.9,36.6-3.3,53.6v32.5h12.2c0,0,0-13.8,2.4-18.7c2.4-4.9,16.3-55.3,12.2-73.1l13-60.1
		L132.3,240.1z"/>
	<circle class="st1" cx="133.1" cy="35.3" r="21.9"/>
	<path class="st1" d="M116.9,42.6c0,0,0.8,25.2-1.6,28.4c-2.4,3.3,30.1,8.1,30.1,8.1s-10.6-21.1-3.3-28.4L116.9,42.6z"/>
	<path class="st3" d="M158.3,128c0,0-0.8,7.3,1.6,10.6c2.4,3.3-2.8,6.1-2.8,6.1c-1.7-0.3-0.7,0-4.1,0l7.8-62.1c0,0,1.7-1.6,4.5,2
		c0,6-3.7,21.5-3.7,21.5C167.2,120.6,158.3,128,158.3,128z"/>
	<path class="st2" d="M142.9,65.4c0,0-26-6.5-27.6-5.7c-1.6,0.8-2.4,9.8-2.4,9.8S86,67,88.4,75.9c2.4,8.9,13.8,70.7,13.8,70.7
		s46.3-3.3,56.1-1.6c0.9-2.2,0.6-4.6-0.8-6.5c-2.4-3.3-1.6-10.6-1.6-10.6s8.9-7.3,3.3-21.9c0,0,10.6-20.3,6.5-22.8
		c-4.1-2.4-19.5-7.3-19.5-7.3S146.1,64.6,142.9,65.4z"/>
	<path class="st0" d="M103,144.2l-13.8,51.2c0,0-35.8,35.8-22.8,41.4s63.4,15.4,72.3,8.9c8.9-6.5,3.3-8.1,14.6-6.5
		c11.4,1.6,31.7,0,31.7-6.5s-28.4-91-28.4-91L103,144.2z"/>
	<path class="st0" d="M29.9,376.6c0,0-10.6-4.9-13-1.6c-2.4,3.3-26,43.1-13,45.5s26-4.1,27.6-11.4s11.4-20.3,11.4-20.3
		s10.5-12.2-3.7-24C39.2,364.8,36.4,376.6,29.9,376.6z"/>
	<path class="st0" d="M124.2,384.8c0,0,10.6-10.6,18.7,0c0,0,12.2,38.2-6.5,37.4s-16.3-8.1-16.3-8.1L124.2,384.8z"/>
	<path class="st1" d="M64.8,199.5c0,0-14.6,33.3-4.1,34.1s13-30.9,13-30.9L64.8,199.5z"/>
	<path class="st2" d="M95.3,69.8c0,0-11.8,1.2-12.6,7.7c-0.8,6.5-6.5,56.1-6.5,56.1l-14.6,68.3l15.4,3.3c0,0,10.6-43.1,16.3-49.6
		l4.9-44.7L95.3,69.8z"/>
	<path class="st0" d="M136.8,0.4c0,0-21.1-1.3-25.9,11.8c-4.9,13.1-13.4,20-13.4,20s-13.4,9.3-6.7,25.9c0,0-20.8,14-7.1,26.5
		c0,0-0.8,12.4,7.3,21c0,0,6.5,3.3,4.1,5.2c-2.4,2,16.2,0.7,14.6-17c-1.6-17.7,9.3-30.1,9.3-30.1s-10.5-22.9-5.7-30.8
		c3-4.8,4.2-8.3,6.7-10.4c1.4-1.1,2.6-2.4,3.8-3.7c2.2-2.8,6-4,9.4-2.9c7.3,2,8.9,7.9,8.9,7.9s5.3,14.1,14.2,20.6
		c8.9,6.5-6.9,18-6.9,18s2.7,13.5,9.9,21.5c7.1,8-2.1,15-2.6,15.8c-1.2,2-6.1,14.9,14,15c0,0,4.7-9.8,11.1-15.7
		c6.5-5.9,1.6-22.9,1.6-22.9s9.7-5.9-0.8-20.3c0,0,3.2-13.1-5.7-21.6C176.9,34.1,164.3-4.2,136.8,0.4z"/>
	<ellipse class="st1" cx="112.9" cy="31.1" rx="2" ry="3.2"/>
</g>
</svg>
