<?xml version="1.0" encoding="utf-8"?>
<!-- Generator: Adobe Illustrator 25.4.1, SVG Export Plug-In . SVG Version: 6.00 Build 0)  -->
<svg version="1.1" id="Layer_1" xmlns="http://www.w3.org/2000/svg" xmlns:xlink="http://www.w3.org/1999/xlink" x="0px" y="0px"
	 viewBox="0 0 214 494.7" style="enable-background:new 0 0 214 494.7;" xml:space="preserve">
<style type="text/css">
	.st0{fill:#302F42;}
	.st1{fill:#F6B7BA;}
	.st2{fill:#D0CDE1;}
</style>
<g>
	<path class="st0" d="M143.9,242.1l-26.3-17c0,0-9.2-56.8-12.8-61l0-0.1h-57l0.2,0.8c0,0-32.6,72.4-24.1,102.9c0,0,0,2.8,18.5,0
		s55.4-4.3,55.4-4.3S147.4,254.9,143.9,242.1z"/>
	<path class="st1" d="M127.6,237.4c0,0,65.3,45.4,53.2,66s-36.9,66.7-36.9,66.7l-17.7-10.6l7.1-19.2c0,0,3.5-27,18.5-37.6
		c0,0-1.4-8.5-15.6-13.5c-14.2-5-43.3-29.8-43.3-29.8L127.6,237.4z"/>
	<path class="st0" d="M148.5,365.6L124.8,352l-16.1,22.8c0,0-23.4,7.1-27.7,20.6c0,0,26.3,63.9,35.5,59.6s3.5-24.8,3.5-24.8
		l15.6-36.9L148.5,365.6z"/>
	<path class="st1" d="M45.9,260.9l41.2,64.6c0,0,12.1,53.9,33.4,78.1l23.4-7.1l-23.4-54.7c0,0,5-14.9-9.2-38.3s-19.9-51.1-19.9-51.1
		L45.9,260.9z"/>
	<path class="st0" d="M144.9,390.4l-28.4,14.9l27,29.1c0,0-5,5.7-5.7,20.6c-0.7,14.9,0,19.2,0,19.2s68.8,28.4,75.2,18.5
		c6.4-9.9-22-25.6-22-25.6l-27-40.5L144.9,390.4z"/>
	<circle class="st1" cx="82.1" cy="39.4" r="24.8"/>
	<polygon class="st1" points="66.2,47.6 55.5,70.3 97.4,134.9 96,105.1 87.5,85.9 79.7,78.8 86,58.2 	"/>
	<path class="st1" d="M60.8,76.3l-5-5.7c0,0-20.2-8.9-27.3,12.4c-2.8,8.4-4.4,18.2-5.4,27.1c-1.5,14.4-0.3,28.9,3.6,42.8l0,0
		c0,0-11.4,38.3-7.8,63.2l-2.1,12.8c0,0-27.7,19.9-12.1,25.6s21.3-21.3,21.3-21.3l16.3-65.3l-0.7-28.4l7.1,7.1L60.8,76.3z"/>
	<path class="st1" d="M88.9,87.3c0,0,13.8,8.2,15.3,14.5c1.4,6.4,14.2,64.6,14.2,64.6l22,63.9c0,0,34.8,33.4,15.6,36.2
		c-19.2,2.8-26.3-31.9-26.3-31.9l-25.6-51.1l-5.7-78.8L88.9,87.3z"/>
	<path class="st0" d="M107.4,33.9c0,0,14.4-31.3-23.2-31.3c0,0-23.1-12.1-40.6,16L25.5,48.1l4.6-0.9l0.6,4.6l5.9,3.6l4.4-4.6l-0.7,7
		l50.9,21.6c0,0-19.2-21.2-11.8-46.3l3,6.1L107.4,33.9z"/>
	<path class="st2" d="M110.5,137.4c0,0,4.3-11.4,1.4-15.6c-2.8-4.3-23.4-37.3-23.4-37.3h-2.1c0,0,9.9,33.7,6.4,38.7
		c0,0-32.3-52.9-38-52.9l2.5,4.6l-15.5,67.3l6.1,22.8h57L110.5,137.4z"/>
</g>
</svg>
