<?xml version="1.0" encoding="utf-8"?>
<!-- Generator: Adobe Illustrator 25.4.1, SVG Export Plug-In . SVG Version: 6.00 Build 0)  -->
<svg version="1.1" id="Layer_1" xmlns="http://www.w3.org/2000/svg" xmlns:xlink="http://www.w3.org/1999/xlink" x="0px" y="0px"
	 viewBox="0 0 167 437.5" style="enable-background:new 0 0 167 437.5;" xml:space="preserve">
<style type="text/css">
	.st0{fill:#A1626A;}
	.st1{fill:#D0CDE1;}
	.st2{fill:#302F42;}
	.st3{fill:#403E56;}
	.st4{opacity:0.15;fill:#020203;enable-background:new    ;}
</style>
<g>
	<path class="st0" d="M41.1,201l-3.3,12.6c0,0-11.9,26.5,0,27.8s12.6-34.5,12.6-34.5L41.1,201z"/>
	<path class="st1" d="M61.6,110.2l-23.9,94.1c0,0,9.3,2.7,13.9,6L61.6,110.2z"/>
	<path class="st2" d="M136.5,181.8l6.6,102.7c0,0,15.9,40.4,15.2,78.9c0,0-6,15.2-1.3,17.9s7.3,4.6,4.6,6.6c-2.7,2-4.6,6.6-2.7,8
		s2.7,3.3,2,3.3h-19.9c0,0,4-9.9-2-12.6c-6-2.7-2.7-9.3-2.7-9.3L92.1,247.4L57,366.6c0,0,6,4,1.3,6c-4.6,2-6.6-2-4.6,2
		c2,4-0.7,6-0.7,6.6s-19.9-2-19.9-2s9.9-8.6,5.3-10.6c-4.6-2-6.6-4-5.3-5.3s6.6-13.9,6.6-13.9s2.7-47.7,3.3-49.7
		c0.7-2,0-11.3,0-15.9s-0.7-23.2,1.3-27.8c2-4.6,4-61.6,14.6-68.3C69.6,181.1,136.5,181.8,136.5,181.8z"/>
	<path class="st2" d="M52.4,377.9c0,0,13.3,27.2,4,30.5c-9.3,3.3-21.2,0.7-23.9,4.6c-2.7,4-31.8,8.6-32.5-1.3s31.8-28.5,31.8-28.5
		l4.2-6.8L52.4,377.9z"/>
	<path class="st2" d="M159.7,397.8c0,0,13.3,27.2,4,30.5c-9.3,3.3-21.2,0.7-23.9,4.6c-2.7,4-31.8,8.6-32.5-1.3
		c-0.7-9.9,31.8-28.5,31.8-28.5l4.2-6.8L159.7,397.8z"/>
	<circle class="st0" cx="98.4" cy="35" r="21.9"/>
	<polygon class="st0" points="113.3,46.6 110.7,65.8 90.8,81 85.5,73.7 85.5,48.6 	"/>
	<path class="st3" d="M82.2,71.1c0,0,20.5,2,31.1-5.3L134.5,191c0,0-74.9,6-78.2,2v-39.1l13.3-63.6L82.2,71.1z"/>
	<path class="st1" d="M111.5,59.8l7.1,6c0,0,29.2,4.6,27.2,12.6l-8,94.1l2.7,31.8c0,0-22.5-6-39.8,0c-17.2,6-3.5-128.2-3.5-128.2
		S113,61.8,111.5,59.8z"/>
	<path class="st1" d="M85.5,67.1c0,0-21.2,15.3-23.9,25.2c-2.7,9.9-11.3,114.6-11.3,114.6s4-2,6,1.3C58.3,211.6,88.8,72.3,85.5,67.1
		z"/>
	<path class="st0" d="M143.8,205.6l-4.7,15.5c0,0-1.2,28.9-17.1,24.9s4.6-37.8,4.6-37.8l4.6-7.3L143.8,205.6z"/>
	<path class="st2" d="M76.6,34c0,0-2.4-3.6-1.5-7.4c0.5-2.2,0.8-4.4,0.6-6.6c0,0,1.9-6.2,3.8-9.7s1-4.9,7-6c6-1.1,3.6-8.9,19.4-0.5
		c1.1,1.5,3,2.2,4.8,1.8c3.3-0.6,4.5,3.9,4.5,3.9s2.2-1.3,3,0.5c0.8,1.8,6.7-1.1,6.7,11.2s-6.6,23.3-6.6,23.3s0.5-20.7-10.3-22.8
		s-22.5-8.2-25.3-0.4C81.1,25.9,79.1,30.1,76.6,34z"/>
	<ellipse class="st0" cx="118.5" cy="36.1" rx="2.1" ry="2.8"/>
	<path class="st1" d="M140.5,73.7c0,0,10.6-2.7,13.9,15.2c3.3,17.9,7.3,68.9,7.3,68.9l-15.9,53.7c0,0-15.9-8.6-19.2-7.3l12.5-46.6
		l-10.5-47.5C128.6,110.2,137.8,73.7,140.5,73.7z"/>
	<polygon class="st4" points="125.1,111.1 139,157.5 125.1,204.5 133,157.5 	"/>
</g>
</svg>
