<?xml version="1.0" encoding="utf-8"?>
<!-- Generator: Adobe Illustrator 25.4.1, SVG Export Plug-In . SVG Version: 6.00 Build 0)  -->
<svg version="1.1" id="Layer_1" xmlns="http://www.w3.org/2000/svg" xmlns:xlink="http://www.w3.org/1999/xlink" x="0px" y="0px"
	 viewBox="0 0 168.5 469.9" style="enable-background:new 0 0 168.5 469.9;" xml:space="preserve">
<style type="text/css">
	.st0{fill:#F6B6B9;}
	.st1{fill:#CFCCE0;}
	.st2{fill:#302F42;}
	.st3{fill:#3D3D3D;}
</style>
<g>
	<path class="st0" d="M16.8,203.8c0,0-26.2,20.6-13.1,25.3s21.5-16.9,21.5-16.9L16.8,203.8z"/>
	<path class="st1" d="M17.7,196.3l-5.6,9.4c0,0,9.4,0,11.2,14l7.5-9.4L17.7,196.3z"/>
	<polygon class="st0" points="142.3,409.8 143.2,437.9 132,444.4 127.3,441.6 128.2,409.8 	"/>
	<path class="st0" d="M75.8,402.3l1.9,30l-26.2,11.2l1.9-15.9c0,0,7.5-12.2,5.6-25.3L75.8,402.3z"/>
	<path class="st2" d="M116.1,176.6c0,0,15,39.3,17.8,63.7s7.5,89,7.5,89l9.4,83.3l-26.2,3.7l-11.2-84.3L88,248.7l-5.6,83.3
		l-4.7,75.9l-24.3,0.9l-1.9-78.7L41.1,230l5.6-47.8L116.1,176.6z"/>
	<path class="st2" d="M130.1,439.8c0,0,1.5-15.7,12.9-6.9l2-1.5l9.4,20.6c0,0,11.2,15.9-8.4,17.8c-19.7,1.9-17.8-17.8-17.8-17.8
		l-1.9-8.4l0.9-5.5L130.1,439.8z"/>
	<path class="st2" d="M75.8,421c4.7,2.7,7.6,7.7,7.5,13.1c0,9.4-0.9,10.3-0.9,10.3l-14,3.7c0,0-9.4-0.9-15,4.7s-33.7,9.4-33.7,1.9
		S43,435.1,43,435.1s7-11.7,11.9-10.6c5,1.2,6.8,3.1,6.8,4c0,0.9-2.8,7.5-2.8,7.5S74.8,432.3,75.8,421z"/>
	<circle class="st0" cx="73.9" cy="38" r="23.4"/>
	<path class="st0" d="M91.2,44.1l10.3,23.4l-28.1,40.3c0,0-1.9-44-7.5-51.5C60.3,48.8,91.2,44.1,91.2,44.1z"/>
	<polygon class="st1" points="78.1,92.8 82.8,80.6 86.6,81.5 91.2,77.8 97.8,57.2 107.2,63.7 119.3,186.4 43.5,188.3 53.8,103.1 
		63.1,78.7 69.9,69.8 74.4,83.4 	"/>
	<path class="st3" d="M99.7,145.2l2.9-84.7c0,0,5.6,0.4,7.4,3.2c1.9,2.8,32.8,8.4,32.8,8.4l-5.6,87.1c0,0,23.4,69.3,15,73
		c-8.4,3.7-23.4,2.8-23.4,2.8L99.7,145.2z"/>
	<path class="st3" d="M54.2,134.5l9.9-57.1l-22.1,15l5.6,41.2L43,161.6c0,0-17.8,77.7-12.2,80.5c5.6,2.8,12.2,0,12.2,0l11.2-78.7
		V134.5z"/>
	<path class="st3" d="M48.6,90.4l-6.6,1.9l-2.8,37.5l-4.7,32.8l-22.5,40.3c0,0,11.2-7.5,15.9,14l24.8-43.1L48.6,90.4z"/>
	<path class="st0" d="M121.7,196.3c0,0-26.2,20.6-13.1,25.3s21.5-16.9,21.5-16.9L121.7,196.3z"/>
	<polygon class="st1" points="137.6,206.6 129.2,216.9 117.9,197.2 122.6,188.8 	"/>
	<path class="st3" d="M135.7,75.5l7.5-3.7c0,0,5.6,7.5,6.6,14c0.9,6.6,5.6,15,5.6,19.7s13.1,48.7,13.1,48.7l-30,60.9
		c0,0-6.6-22.5-20.6-24.3l23.4-32.8l-13.1-23.4L135.7,75.5z"/>
	<path class="st2" d="M93.5,15.7l4.4-1.8c0,0-9.2-10.2-22.1-9.3l3.6-4c0,0-8.8-3.5-16.9,5.7c-4.2,4.9-9.1,10.6-12.1,17.1h-4.7l2,4.3
		l-6.9,4.3l7.1-0.8c-0.4,2.4-0.5,4.8-0.2,7.2c0.3,2.4,1.5,4.6,3.4,6.1l0,0c0,0,5.5-11.3,5.5-13.1V36c0,0,4.4-4,4.4-6.6l2.4,3.1
		l1.2-4.9l14.9,4.9l-2.4-4l9.2,1.3L82.7,25c0,0,10.4,5.7,10.8,10.6C93.9,40.4,97,45,97,45S105.1,22.3,93.5,15.7z"/>
	<ellipse class="st0" cx="93.1" cy="34.2" rx="2.6" ry="3.3"/>
</g>
</svg>
