<?xml version="1.0" encoding="utf-8"?>
<!-- Generator: Adobe Illustrator 25.4.1, SVG Export Plug-In . SVG Version: 6.00 Build 0)  -->
<svg version="1.1" id="Calque_1" xmlns="http://www.w3.org/2000/svg" xmlns:xlink="http://www.w3.org/1999/xlink" x="0px" y="0px"
	 viewBox="0 0 400 296.6" style="enable-background:new 0 0 400 296.6;" xml:space="preserve">
<style type="text/css">
	.st0{fill:#7E72C0;}
</style>
<g>
	<path class="st0" d="M400,88.4c0,68-42.6,137.4-127.7,208.2l-26.8-25.4c11.1-9.3,24-25.4,38.3-48.7c16.1-25.4,24.3-44.7,24.3-57.6
		c0-7.5-2.9-11.8-8.9-12.9c-44.4-6.1-64.8-31.5-61.2-76.6c0.7-22.2,9.7-40.1,26.1-54.4c16.4-13.8,36.4-21,59.3-21
		c22.2,0,40.4,8.6,54.7,26.1C392.8,43.6,400,64.4,400,88.4z M162.5,88.4c0,68-42.6,137.4-127.7,208.2L7.9,271.2
		c11.1-9.3,24-25.4,38.3-48.7c16.1-25.4,24.3-44.7,24.3-57.6c0-7.5-2.9-11.8-8.9-12.9c-44.4-6-64.8-31.4-61.2-76.5
		c0.7-22.2,9.7-40.1,26.1-54.4C43,7.2,63,0,85.9,0c22.2,0,40.4,8.6,54.7,26.1C155.3,43.6,162.5,64.4,162.5,88.4z"/>
</g>
</svg>
