<svg width="380" height="315" viewBox="0 0 380 315" fill="none" xmlns="http://www.w3.org/2000/svg">
<path d="M335.206 204.228C387.697 129.011 329.63 97.389 292.205 71.227C270.695 56.1904 286.854 34.2479 267.119 28.9163C247.385 23.5848 184.595 40.5017 155.667 49.6265C121.636 59.6085 71.9764 73.2186 78.2054 95.2278C85.7055 121.728 61.0088 138.219 48.2054 148.728C26.5894 171.496 15.3151 201.64 58.988 220.728C113.579 244.587 57.6146 289.974 105.205 295.728C126.291 298.277 174.923 284.019 192.205 263.228C209.499 242.425 256.905 243.853 268.434 241.57C279.949 239.29 327.444 215.349 335.206 204.228Z" fill="#EFECFA"/>
<g clip-path="url(#clip0)">
<path d="M268.806 188.23C271.133 188.23 273.019 187.31 273.019 186.175C273.019 185.04 271.133 184.12 268.806 184.12C266.479 184.12 264.593 185.04 264.593 186.175C264.593 187.31 266.479 188.23 268.806 188.23Z" fill="#F1F1F1"/>
<path d="M265.518 201.793C267.845 201.793 269.731 200.873 269.731 199.738C269.731 198.603 267.845 197.683 265.518 197.683C263.192 197.683 261.305 198.603 261.305 199.738C261.305 200.873 263.192 201.793 265.518 201.793Z" fill="#F1F1F1"/>
<path d="M273.224 204.054C275.608 204.054 277.54 203.134 277.54 201.999C277.54 200.864 275.608 199.944 273.224 199.944C270.841 199.944 268.909 200.864 268.909 201.999C268.909 203.134 270.841 204.054 273.224 204.054Z" fill="#F1F1F1"/>
<path d="M134.831 107.263C134.832 108.465 134.575 109.652 134.079 110.746C133.583 111.84 132.859 112.815 131.954 113.606C131.05 114.397 129.988 114.985 128.837 115.331C127.687 115.678 126.476 115.774 125.286 115.613C125.246 115.611 125.207 115.605 125.168 115.596C124.863 115.553 124.561 115.491 124.264 115.412C124.066 115.363 123.873 115.303 123.683 115.237C122.39 114.795 121.224 114.045 120.285 113.053C119.346 112.06 118.663 110.854 118.294 109.539C117.925 108.223 117.882 106.838 118.167 105.502C118.453 104.166 119.059 102.919 119.934 101.87C120.809 100.82 121.925 99.999 123.188 99.477C124.45 98.9551 125.821 98.748 127.181 98.8736C128.542 98.9992 129.851 99.4537 130.997 100.198C132.143 100.942 133.09 101.954 133.758 103.146C134.005 103.584 134.212 104.044 134.374 104.521C134.552 105.036 134.678 105.568 134.751 106.108C134.793 106.398 134.818 106.691 134.826 106.984C134.829 107.077 134.831 107.168 134.831 107.263Z" fill="#2F2E41"/>
<path d="M97.1217 146.411L90.5457 149.082C90.5457 149.082 78.6268 145.589 80.8873 149.082C83.1478 152.576 91.1622 151.343 91.1622 151.343L101.232 149.082L97.1217 146.411Z" fill="#A0616A"/>
<path d="M131.851 180.729L132.468 191.826C132.468 191.826 132.468 204.362 133.29 208.883C134.112 213.404 135.55 221.213 135.55 221.213L139.455 220.802C139.455 220.802 139.044 211.965 139.455 209.705C139.866 207.444 139.455 193.265 139.455 193.265L140.071 180.318L131.851 180.729Z" fill="#A0616A"/>
<path d="M148.702 178.88L152.195 190.799C152.195 190.799 154.456 204.362 157.538 210.527L159.388 216.486L164.525 215.664L162.47 207.239L159.388 190.388L157.127 175.386L148.702 178.88Z" fill="#A0616A"/>
<path d="M139.66 218.13C139.66 218.13 136.578 217.719 134.728 219.158C134.728 219.158 135.345 230.255 136.167 230.46C136.989 230.666 142.537 231.899 142.743 230.46C142.948 229.022 141.099 225.939 141.099 225.939L139.66 218.13Z" fill="#2F2E41"/>
<path d="M158.566 215.459C158.566 215.459 159.594 218.541 159.183 218.952C158.772 219.363 157.128 224.09 158.155 224.706C159.183 225.323 164.32 227.789 164.937 229.638C165.553 231.488 174.389 231.693 173.567 230.049C172.745 228.405 167.403 223.679 167.403 223.679L164.526 214.637L158.566 215.459Z" fill="#2F2E41"/>
<path d="M129.18 116.614C132.698 116.614 135.55 113.761 135.55 110.243C135.55 106.725 132.698 103.873 129.18 103.873C125.661 103.873 122.809 106.725 122.809 110.243C122.809 113.761 125.661 116.614 129.18 116.614Z" fill="#A0616A"/>
<path d="M124.556 113.223L121.473 122.059L131.954 123.703C131.954 123.703 130.104 115.278 131.337 113.223C132.57 111.168 124.556 113.223 124.556 113.223Z" fill="#A0616A"/>
<path d="M159.388 172.509C159.012 179.467 147.967 180.23 146.094 180.309C146.018 180.313 145.943 180.29 145.882 180.245C145.82 180.2 145.776 180.135 145.757 180.061L143.604 171.91C143.583 171.832 143.535 171.764 143.467 171.719C143.4 171.673 143.319 171.654 143.238 171.665C143.158 171.675 143.084 171.714 143.031 171.775C142.977 171.836 142.948 171.914 142.948 171.995V180.087C142.948 180.155 142.927 180.222 142.888 180.278C142.849 180.334 142.794 180.377 142.73 180.401C129.776 185.249 124.5 177.854 123.896 176.92C123.857 176.86 123.839 176.788 123.844 176.716L126.027 147.153L126.097 146.205C126.048 146.181 125.998 146.154 125.947 146.123C121.754 143.692 115.907 126.527 115.095 124.093C115.069 124.014 115.073 123.929 115.106 123.853C115.14 123.777 115.2 123.717 115.276 123.683L120.461 121.379C120.518 121.353 120.567 121.313 120.602 121.261L122.54 118.404C122.569 118.361 122.608 118.325 122.653 118.3C122.698 118.274 122.748 118.26 122.8 118.257C122.852 118.255 122.904 118.265 122.951 118.286C122.998 118.307 123.04 118.339 123.073 118.379C123.769 119.228 125.426 120.737 125.941 121.201C125.988 121.242 126.045 121.27 126.107 121.281C126.169 121.291 126.233 121.284 126.291 121.26L131.114 119.266C131.16 119.248 131.208 119.239 131.258 119.241L137.698 119.552C138.558 119.593 139.382 119.915 140.042 120.467C140.703 121.02 141.165 121.773 141.358 122.613L145.403 140.197C145.41 140.229 145.422 140.26 145.438 140.288C145.466 140.336 145.518 140.426 145.593 140.554C145.788 140.891 146.135 141.5 146.595 142.319C150.029 148.415 159.727 166.248 159.388 172.509Z" fill="#2F2E41"/>
<path d="M116.952 124.731L115.308 123.703C115.308 123.703 111.609 125.964 111.609 128.019C111.609 130.074 106.677 138.088 106.677 138.088L95.9915 146.514L101.745 151.24L120.857 137.472L116.952 124.731Z" fill="#2F2E41"/>
<path d="M277.976 231.179H101.129V231.59H277.976V231.179Z" fill="#3F3D56"/>
<path d="M119.772 102.701C121.392 102.701 122.706 101.387 122.706 99.7667C122.706 98.146 121.392 96.8322 119.772 96.8322C118.151 96.8322 116.837 98.146 116.837 99.7667C116.837 101.387 118.151 102.701 119.772 102.701Z" fill="#2F2E41"/>
<path d="M116.278 99.3475C116.278 98.6177 116.55 97.9141 117.041 97.3742C117.532 96.8342 118.207 96.4965 118.933 96.4271C118.841 96.4184 118.748 96.413 118.654 96.413C117.875 96.413 117.129 96.7221 116.579 97.2725C116.028 97.8228 115.719 98.5692 115.719 99.3475C115.719 100.126 116.028 100.872 116.579 101.423C117.129 101.973 117.875 102.282 118.654 102.282C118.748 102.282 118.841 102.277 118.933 102.268C118.207 102.198 117.532 101.861 117.041 101.321C116.55 100.781 116.278 100.077 116.278 99.3475Z" fill="#2F2E41"/>
<path d="M133.263 106.78L134.481 107.223C134.859 106.986 135.701 106.518 135.733 106.5C135.657 105.926 134.746 103.031 134.488 102.576C132.823 101.991 131.131 101.459 129.385 101.225C127.384 100.953 125.285 101.088 123.451 101.938C121.62 102.785 120.092 104.417 119.672 106.39C119.465 107.356 119.502 108.426 118.922 109.225C118.805 109.384 118.669 109.528 118.516 109.652C119.126 111.385 120.212 112.912 121.65 114.056C122.484 114.721 123.423 115.244 124.429 115.602L124.568 115.651C124.568 115.642 124.566 115.63 124.566 115.621C124.559 115.553 124.554 115.486 124.547 115.419C124.512 115.031 124.475 114.648 124.44 114.26C124.401 113.805 124.361 113.332 124.528 112.907C124.698 112.482 125.141 112.129 125.587 112.224C126.035 112.319 126.263 113.004 125.884 113.26C126.362 113.638 127.089 113.522 127.584 113.169C128.08 112.814 128.405 112.278 128.744 111.772C130.094 109.751 132.057 108.827 134.081 107.481L133.263 106.78Z" fill="#2F2E41"/>
<path d="M126.027 147.153L126.097 146.205C126.048 146.181 125.998 146.154 125.947 146.123C130.178 145.079 141.635 142.19 145.593 140.554C145.788 140.891 146.135 141.5 146.596 142.32C141.612 143.421 130.299 145.955 126.027 147.153Z" fill="#CFCCE0"/>
<path d="M127.568 156.041L80.1921 150.697L77.5892 173.772L124.965 179.116L127.568 156.041Z" fill="white"/>
<path opacity="0.1" d="M136.269 130.279L138.735 139.527L134.214 146.514L136.269 139.527V130.279Z" fill="black"/>
<path d="M122.706 117.538C122.706 117.538 120.446 120.826 120.857 121.237C121.268 121.648 125.994 122.47 125.994 122.47V121.237L122.706 117.538Z" fill="#CFCCE0"/>
<path d="M131.132 117.538C131.132 117.538 133.392 120.826 132.981 121.237C132.57 121.648 125.994 122.47 125.994 122.47V121.237L131.132 117.538Z" fill="#CFCCE0"/>
<path d="M142.845 171.174C143.526 171.174 144.078 170.622 144.078 169.941C144.078 169.26 143.526 168.708 142.845 168.708C142.164 168.708 141.612 169.26 141.612 169.941C141.612 170.622 142.164 171.174 142.845 171.174Z" fill="#CFCCE0"/>
<path d="M141.407 166.447C142.088 166.447 142.64 165.895 142.64 165.214C142.64 164.533 142.088 163.981 141.407 163.981C140.726 163.981 140.174 164.533 140.174 165.214C140.174 165.895 140.726 166.447 141.407 166.447Z" fill="#CFCCE0"/>
<path d="M140.174 161.721C140.855 161.721 141.407 161.169 141.407 160.488C141.407 159.807 140.855 159.255 140.174 159.255C139.493 159.255 138.941 159.807 138.941 160.488C138.941 161.169 139.493 161.721 140.174 161.721Z" fill="#CFCCE0"/>
<path d="M138.941 156.789C139.622 156.789 140.174 156.237 140.174 155.556C140.174 154.875 139.622 154.323 138.941 154.323C138.26 154.323 137.708 154.875 137.708 155.556C137.708 156.237 138.26 156.789 138.941 156.789Z" fill="#CFCCE0"/>
<path d="M137.297 152.062C137.978 152.062 138.53 151.51 138.53 150.829C138.53 150.148 137.978 149.596 137.297 149.596C136.616 149.596 136.064 150.148 136.064 150.829C136.064 151.51 136.616 152.062 137.297 152.062Z" fill="#CFCCE0"/>
<path d="M136.166 147.027L129.385 152.781C129.385 152.781 121.987 159.152 125.275 160.796C128.563 162.44 132.467 154.22 132.467 154.22L141.509 147.644L136.166 147.027Z" fill="#A0616A"/>
<path d="M138.427 120.313C139.127 120.119 139.869 120.142 140.556 120.378C141.243 120.615 141.842 121.053 142.275 121.635C142.795 122.302 143.228 123.031 143.565 123.806C144.181 125.45 145.414 149.493 145.414 149.493L134.112 147.849L138.427 139.424V120.313Z" fill="#2F2E41"/>
<path d="M113.043 171.905C112.839 171.883 112.643 171.818 112.466 171.715C112.425 171.691 112.387 171.663 112.351 171.632L108.887 168.578C108.712 168.423 108.576 168.228 108.491 168.01C108.407 167.792 108.376 167.556 108.402 167.324L108.798 163.724C108.824 163.491 108.905 163.268 109.035 163.073C109.165 162.879 109.34 162.718 109.545 162.605L113.591 160.379C113.632 160.356 113.676 160.337 113.721 160.323C113.953 160.249 114.2 160.234 114.439 160.28C114.678 160.325 114.902 160.43 115.091 160.584C115.279 160.738 115.426 160.937 115.518 161.162C115.61 161.387 115.644 161.632 115.618 161.873L114.655 170.614C114.613 170.999 114.419 171.351 114.117 171.593C113.814 171.835 113.428 171.947 113.043 171.905L113.043 171.905Z" fill="#C1B6E9"/>
<path d="M104.618 171.805L94.165 170.653C92.0326 170.416 90.4564 168.845 90.6419 167.141L91.4019 160.241C91.5918 158.538 93.4722 157.347 95.6051 157.58L106.086 158.735C108.203 158.97 109.768 160.53 109.584 162.222L108.821 169.143C108.631 170.847 106.751 172.038 104.618 171.805Z" fill="#C1B6E9"/>
<path d="M248.603 118.566H195.302C194.876 118.565 194.468 118.395 194.167 118.091C193.866 117.788 193.697 117.376 193.696 116.947V98.813C193.697 98.3837 193.866 97.9722 194.167 97.6687C194.468 97.3652 194.876 97.1944 195.302 97.1939H248.603C249.029 97.1944 249.437 97.3651 249.738 97.6687C250.039 97.9722 250.208 98.3837 250.209 98.813V116.947C250.208 117.376 250.039 117.788 249.738 118.091C249.437 118.395 249.029 118.565 248.603 118.566V118.566Z" fill="#3F3D56"/>
<path d="M216.301 102.126H202.122V103.77H216.301V102.126Z" fill="white"/>
<path d="M234.899 103.975C235.41 103.975 235.824 103.561 235.824 103.051C235.824 102.54 235.41 102.126 234.899 102.126C234.388 102.126 233.974 102.54 233.974 103.051C233.974 103.561 234.388 103.975 234.899 103.975Z" fill="#C1B6E9"/>
<path d="M238.084 103.975C238.652 103.975 239.112 103.561 239.112 103.051C239.112 102.54 238.652 102.126 238.084 102.126C237.517 102.126 237.057 102.54 237.057 103.051C237.057 103.561 237.517 103.975 238.084 103.975Z" fill="#C1B6E9"/>
<path d="M241.269 103.975C241.78 103.975 242.194 103.561 242.194 103.051C242.194 102.54 241.78 102.126 241.269 102.126C240.759 102.126 240.344 102.54 240.344 103.051C240.344 103.561 240.759 103.975 241.269 103.975Z" fill="#C1B6E9"/>
<path d="M248.603 141.171H195.302C194.876 141.17 194.468 141.001 194.167 140.701C193.866 140.4 193.697 139.992 193.696 139.567V121.608C193.697 121.183 193.866 120.775 194.167 120.475C194.468 120.174 194.876 120.005 195.302 120.004H248.603C249.029 120.005 249.437 120.174 249.738 120.475C250.039 120.775 250.208 121.183 250.209 121.608V139.567C250.208 139.992 250.039 140.4 249.738 140.701C249.437 141.001 249.029 141.17 248.603 141.171V141.171Z" fill="#3F3D56"/>
<path d="M216.301 124.936H202.122V126.58H216.301V124.936Z" fill="white"/>
<path d="M234.899 126.786C235.41 126.786 235.824 126.372 235.824 125.861C235.824 125.35 235.41 124.936 234.899 124.936C234.388 124.936 233.974 125.35 233.974 125.861C233.974 126.372 234.388 126.786 234.899 126.786Z" fill="#C1B6E9"/>
<path d="M238.084 126.786C238.652 126.786 239.112 126.372 239.112 125.861C239.112 125.35 238.652 124.936 238.084 124.936C237.517 124.936 237.057 125.35 237.057 125.861C237.057 126.372 237.517 126.786 238.084 126.786Z" fill="#C1B6E9"/>
<path d="M241.269 126.786C241.78 126.786 242.194 126.372 242.194 125.861C242.194 125.35 241.78 124.936 241.269 124.936C240.759 124.936 240.344 125.35 240.344 125.861C240.344 126.372 240.759 126.786 241.269 126.786Z" fill="#C1B6E9"/>
<path d="M248.603 163.981H195.302C194.876 163.981 194.468 163.812 194.167 163.511C193.866 163.21 193.697 162.803 193.696 162.378V144.418C193.697 143.993 193.866 143.586 194.167 143.285C194.468 142.984 194.876 142.815 195.302 142.815H248.603C249.029 142.815 249.437 142.984 249.738 143.285C250.039 143.586 250.208 143.993 250.209 144.418V162.378C250.208 162.803 250.039 163.21 249.738 163.511C249.437 163.812 249.029 163.981 248.603 163.981V163.981Z" fill="#3F3D56"/>
<path d="M216.301 147.747H202.122V149.391H216.301V147.747Z" fill="white"/>
<path d="M234.899 149.596C235.41 149.596 235.824 149.182 235.824 148.671C235.824 148.161 235.41 147.747 234.899 147.747C234.388 147.747 233.974 148.161 233.974 148.671C233.974 149.182 234.388 149.596 234.899 149.596Z" fill="#C1B6E9"/>
<path d="M238.084 149.596C238.652 149.596 239.112 149.182 239.112 148.671C239.112 148.161 238.652 147.747 238.084 147.747C237.517 147.747 237.057 148.161 237.057 148.671C237.057 149.182 237.517 149.596 238.084 149.596Z" fill="#C1B6E9"/>
<path d="M241.269 149.596C241.78 149.596 242.194 149.182 242.194 148.671C242.194 148.161 241.78 147.747 241.269 147.747C240.759 147.747 240.344 148.161 240.344 148.671C240.344 149.182 240.759 149.596 241.269 149.596Z" fill="#C1B6E9"/>
<path d="M229.248 177.955H175.407V156.789H176.048V177.316H229.248V177.955Z" fill="#CCCCCC"/>
<path d="M209.109 82.6035H262.949V103.77H262.308V83.2426H209.109V82.6035Z" fill="#CCCCCC"/>
<path d="M266.294 231.179L266.525 230.754C263.427 229.084 259.571 227.006 257.557 223.596C255.572 220.235 255.527 215.67 257.441 211.684C259.069 208.291 262.061 205.252 266.091 202.894C266.887 202.429 267.721 201.988 268.528 201.562C270.479 200.531 272.497 199.466 274.16 197.954C276.451 195.872 278.185 192.378 276.893 189.266C276.468 188.273 275.772 187.418 274.884 186.799C273.996 186.18 272.952 185.821 271.87 185.764L271.842 186.248C272.834 186.3 273.791 186.628 274.604 187.195C275.418 187.762 276.056 188.545 276.445 189.454C277.646 192.346 275.999 195.628 273.833 197.597C272.215 199.067 270.225 200.118 268.301 201.134C267.489 201.563 266.65 202.006 265.845 202.476C261.731 204.883 258.673 207.995 257.003 211.475C255.02 215.605 255.072 220.344 257.138 223.842C259.221 227.368 263.142 229.481 266.294 231.179Z" fill="#F1F1F1"/>
<path d="M261.1 215.356C263.483 215.356 265.415 214.436 265.415 213.301C265.415 212.166 263.483 211.246 261.1 211.246C258.717 211.246 256.784 212.166 256.784 213.301C256.784 214.436 258.717 215.356 261.1 215.356Z" fill="#F1F1F1"/>
<path d="M252.572 215.356C254.899 215.356 256.785 214.436 256.785 213.301C256.785 212.166 254.899 211.246 252.572 211.246C250.245 211.246 248.359 212.166 248.359 213.301C248.359 214.436 250.245 215.356 252.572 215.356Z" fill="#F1F1F1"/>
</g>
<defs>
<clipPath id="clip0">
<rect width="199.976" height="156.59" fill="white" transform="translate(78 75)"/>
</clipPath>
</defs>
</svg>
